<svg width="100px" height="90px" viewBox="0 0 44 40" version="1.1" xmlns="http://www.w3.org/2000/svg" xmlns:xlink="http://www.w3.org/1999/xlink">
    <!-- Generator: Sketch 39.1 (31720) - http://www.bohemiancoding.com/sketch -->
    <desc>Created with Sketch.</desc>
    <defs>
        <path d="M26.3758373,29.5282113 C25.6147372,29.2123094 24.7862703,29.1117952 23.9728535,29.2381559 L13.3296345,30.9045384 L16.7983019,22.9136565 C16.961702,22.5410358 17.043402,22.136107 17.043402,21.7268705 L17.043402,21.3729168 L20.0147026,21.3729168 C20.426786,21.3729168 20.7571694,21.0419378 20.7571694,20.6291114 C20.7571694,20.2198749 20.426786,19.8853061 20.0147026,19.8853061 L17.043402,19.8853061 L17.043402,19.7438682 C17.043402,19.1264236 17.5450688,18.6274422 18.1578189,18.6274422 L24.8421703,18.6274422 C25.4585038,18.6274422 25.9565872,19.1264236 25.9565872,19.7438682 L25.9565872,19.8853061 L22.9852866,19.8853061 C22.5767865,19.8853061 22.2428198,20.2198749 22.2428198,20.6291114 C22.2428198,21.0419378 22.5767865,21.3729168 22.9852866,21.3729168 L25.9565872,21.3729168 L25.9565872,21.7268705 C25.9565872,22.136107 26.0418706,22.5410358 26.2052706,22.9136565 L29.669638,30.9045384 L26.3758373,29.5282113 Z M25.2284538,36.0013282 C24.4673536,36.5563104 23.5500201,36.8571352 22.6061698,36.8571352 L20.396686,36.8571352 C19.4571358,36.8571352 18.5398023,36.5563104 17.7787021,36.0013282 L13.3296345,32.7647698 L23.9506368,31.7675249 C24.7862703,31.6899854 25.6290705,31.7531657 26.4460707,31.957784 L29.669638,32.7647698 L25.2284538,36.0013282 Z M36.9409396,5.14130327 C35.9462061,2.07561902 33.0938721,0 29.8738881,0 L27.9804543,0 L21.975503,5.71064464 L26.1422039,5.71064464 L16.5868852,14.1373276 L30.4128215,14.1373276 C31.6383218,14.1373276 32.6409387,15.141752 32.6409387,16.3694616 L32.6409387,17.4521436 C32.6409387,18.4120545 32.1765386,19.3195545 31.3932218,19.8774085 L29.8294547,20.8818329 C29.7069047,20.9636803 29.5657214,21.0010141 29.4281213,21.0010141 C29.1837379,21.0010141 28.9458046,20.8818329 28.8046212,20.6585477 C28.5817378,20.3132095 28.6820712,19.851562 29.0275046,19.6318666 L30.5611716,18.6461091 C30.921655,18.3854901 31.1552884,17.9317401 31.1552884,17.4521436 L31.1552884,16.3694616 C31.1552884,15.9580712 30.822755,15.6249383 30.4128215,15.6249383 L29.5399214,15.6249383 C29.2389213,16.4922326 28.4147544,17.113267 27.4415209,17.113267 C26.4725874,17.113267 25.6441205,16.4922326 25.3431204,15.6249383 L17.6561521,15.6249383 C17.355152,16.4922326 16.5309852,17.113267 15.5577517,17.113267 C14.5888181,17.113267 13.7603513,16.4922326 13.4593512,15.6249383 L12.5871677,15.6249383 C12.1786676,15.6249383 11.8439842,15.9602251 11.8439842,16.3694616 L11.8439842,17.4521436 C11.8439842,17.9317401 12.0783342,18.3854901 12.468201,18.664776 L13.976068,19.6318666 C14.3215014,19.851562 14.4218347,20.3132095 14.1989514,20.6585477 C13.976068,21.0046039 13.5152512,21.1051181 13.1734011,20.8818329 L11.6361508,19.8960755 C10.827034,19.3195545 10.3590505,18.4120545 10.3590505,17.4521436 L10.3590505,16.3694616 C10.3590505,15.141752 11.3580841,14.1373276 12.5871677,14.1373276 L15.0675515,14.1373276 L18.714669,7.94277868 L16.0336184,7.94277868 L19.7058192,0 L13.1253845,0 C9.90970043,0 7.05736648,2.07561902 6.06191626,5.14130327 L0.218214996,23.1577625 C-0.3780518,24.997891 0.275548342,27.0132015 1.83788201,28.1497303 L15.387185,38.010895 C19.0335857,40.663035 23.9692701,40.663035 27.6128043,38.010895 L41.1628239,28.1490124 C42.7244409,27.0124835 43.378041,24.997891 42.7817742,23.1584804 L36.9409396,5.14130327 Z" id="path-1"></path>
    </defs>
    <mask id="mask-2" fill="white">
        <use xlink:href="#path-1"></use>
    </mask>
    <use id="Fill-1" stroke="none" fill="#1F1F1F" fill-rule="evenodd" xlink:href="#path-1"></use>
</svg>
